<?xml version="1.0" encoding="utf-8"?>
<!-- Generator: Adobe Illustrator 16.0.2, SVG Export Plug-In . SVG Version: 6.00 Build 0)  -->
<!DOCTYPE svg PUBLIC "-//W3C//DTD SVG 1.1//EN" "http://www.w3.org/Graphics/SVG/1.1/DTD/svg11.dtd">
<svg version="1.1" id="Слой_1" xmlns="http://www.w3.org/2000/svg" xmlns:xlink="http://www.w3.org/1999/xlink" x="0px" y="0px"
	 width="24px" height="24px" viewBox="0 0 24 24" enable-background="new 0 0 24 24" xml:space="preserve">
<path fill="none" d="M0,0h24v24H0V0z"/>
<path fill="#FFFFFF" d="M12,17.27l5.17,3.121c0.38,0.229,0.85-0.111,0.75-0.541l-1.37-5.879l4.56-3.951
	c0.33-0.29,0.16-0.84-0.289-0.88l-6.01-0.51L12.46,3.09c-0.17-0.41-0.75-0.41-0.92,0L9.19,8.63L3.18,9.14
	C2.74,9.18,2.56,9.73,2.9,10.02l4.56,3.951L6.09,19.85c-0.1,0.43,0.37,0.771,0.75,0.541L12,17.27z"/>
<g>
	<path fill-rule="evenodd" clip-rule="evenodd" fill="#FFFFFF" d="M20.682,21.984c0-2.754,0.006-5.434-0.018-8.111
		c-0.002-0.131-0.242-0.298-0.406-0.377c-0.418-0.201-0.895-0.304-1.271-0.559c-0.318-0.214-0.488-0.216-0.785,0.019
		c-0.934,0.735-2.213,0.757-3.121,0.035c-0.354-0.282-0.559-0.271-0.912-0.001c-0.857,0.65-1.821,0.703-2.761,0.204
		c-0.948-0.505-1.388-1.356-1.345-2.425c0.006-0.16,0.225-0.414,0.384-0.45c0.455-0.103,0.932-0.156,1.397-0.149
		c0.367,0.005,0.561-0.133,0.728-0.434c0.337-0.61,0.393-1.202,0.126-1.87c-0.108-0.271-0.078-0.728,0.09-0.939
		c0.168-0.21,0.604-0.332,0.896-0.295c1.143,0.143,1.895-0.704,1.572-1.808c-0.063-0.213-0.072-0.572,0.053-0.679
		c0.184-0.157,0.506-0.174,0.775-0.199c0.152-0.015,0.314,0.115,0.471,0.108c0.336-0.014,0.691-0.018,1.002-0.127
		c0.404-0.143,0.41-0.363,0.049-0.611C17.352,3.143,17.076,3,16.803,2.86C13.034,0.915,9.296,0.996,5.794,3.377
		c-3.309,2.248-4.795,5.54-4.419,9.518c0.378,4.005,2.528,6.851,6.18,8.548C8.367,21.82,9.208,22.01,10.126,22
		c3.206-0.037,6.413-0.016,9.62-0.016C20.033,21.984,20.32,21.984,20.682,21.984z M20.658,5.476
		c-0.281-0.271-0.482-0.527-0.742-0.695c-0.215-0.14-0.502-0.166-0.75-0.259c-0.447-0.167-0.822-0.036-1.127,0.29
		c-0.313,0.336-0.412,0.789-0.141,1.14c0.217,0.276,0.613,0.54,0.947,0.563c0.418,0.029,0.875-0.146,1.273-0.328
		C20.32,6.093,20.428,5.793,20.658,5.476z M15.238,11.191c-0.014-0.543-0.467-0.958-1.041-0.949
		c-0.564,0.008-0.998,0.451-0.982,1.003c0.018,0.541,0.494,0.989,1.035,0.974C14.789,12.204,15.248,11.726,15.238,11.191z
		 M14.377,7.636c-0.459,0.011-0.787,0.341-0.789,0.794c-0.004,0.474,0.352,0.832,0.82,0.828c0.459-0.005,0.836-0.383,0.828-0.832
		C15.229,7.973,14.85,7.625,14.377,7.636z"/>
	<path fill-rule="evenodd" clip-rule="evenodd" d="M20.682,21.984c-0.361,0-0.648,0-0.936,0c-3.207,0-6.414-0.021-9.62,0.016
		c-0.918,0.01-1.759-0.18-2.571-0.557c-3.652-1.697-5.802-4.543-6.18-8.548c-0.375-3.978,1.111-7.27,4.419-9.518
		c3.502-2.382,7.24-2.463,11.009-0.518C17.076,3,17.352,3.143,17.605,3.317c0.361,0.248,0.355,0.469-0.049,0.611
		c-0.311,0.109-0.666,0.113-1.002,0.127c-0.156,0.007-0.318-0.123-0.471-0.108c-0.27,0.025-0.592,0.042-0.775,0.199
		c-0.125,0.106-0.115,0.466-0.053,0.679c0.322,1.104-0.43,1.95-1.572,1.808c-0.293-0.037-0.729,0.085-0.896,0.295
		c-0.168,0.212-0.198,0.669-0.09,0.939c0.267,0.668,0.211,1.26-0.126,1.87c-0.167,0.301-0.36,0.438-0.728,0.434
		c-0.466-0.007-0.942,0.047-1.397,0.149c-0.16,0.036-0.378,0.29-0.384,0.45c-0.043,1.068,0.396,1.92,1.345,2.425
		c0.94,0.499,1.904,0.446,2.761-0.204c0.354-0.27,0.559-0.281,0.912,0.001c0.908,0.722,2.188,0.7,3.121-0.035
		c0.297-0.234,0.467-0.232,0.785-0.019c0.377,0.255,0.854,0.357,1.271,0.559c0.164,0.079,0.404,0.246,0.406,0.377
		C20.688,16.551,20.682,19.23,20.682,21.984z M7.806,20.883c-0.163-0.129-0.338-0.246-0.487-0.391
		c-1.796-1.736-2.375-4.406-1.468-6.754c0.901-2.336,3.19-3.96,5.7-4.001c0.447-0.007,0.71-0.176,0.783-0.566
		c0.061-0.32,0.09-0.695-0.02-0.99c-0.48-1.301,0.131-2.147,1.486-1.994c0.783,0.09,1.256-0.461,1.008-1.207
		c-0.143-0.427-0.176-0.822,0.146-1.166c0.359-0.382,0.803-0.443,1.299-0.292c0.238,0.073,0.49,0.097,0.734,0.142
		c-2.133-1.769-6.295-2.339-9.582-0.74c-3.731,1.814-5.995,5.716-5.64,9.833C2.121,16.859,4.966,19.98,7.806,20.883z M8.007,11.784
		c-0.836,0.473-0.951,1.18-0.923,2.013c0.137,4.18,4.345,6.74,8.086,4.883c0.359-0.178,0.598-0.17,0.92,0.08
		c0.928,0.721,2.109,0.738,3.023,0.041c0.342-0.262,0.625-0.398,1.055,0.027c0-0.643-0.039-1.166,0.01-1.68
		c0.057-0.611-0.078-0.994-0.734-1.217c-0.406-0.139-0.682-0.193-1.078,0.016c-0.984,0.52-1.994,0.479-2.945-0.109
		c-0.289-0.178-0.492-0.16-0.783-0.016c-2.619,1.297-5.78-0.189-6.458-3.027C8.103,12.48,8.068,12.157,8.007,11.784z M6.498,13.871
		c-1.502,3.547,1,7.631,4.804,7.861c2.816,0.172,5.65,0.061,8.474,0.051c0.131,0,0.357-0.23,0.371-0.369
		c0.045-0.504,0.027-1.014,0.018-1.52c-0.014-0.613-0.385-0.814-0.924-0.506c-1.027,0.588-2.084,0.652-3.098,0.041
		c-0.436-0.264-0.76-0.227-1.189-0.055c-2.421,0.971-5.037,0.416-6.79-1.443C7.135,16.842,6.581,15.529,6.498,13.871z
		 M20.125,15.689c0-0.609,0.084-1.131-0.039-1.598c-0.053-0.193-0.549-0.266-0.84-0.398c-0.1-0.044-0.203-0.088-0.285-0.156
		c-0.242-0.203-0.441-0.185-0.721-0.016c-1.066,0.648-2.166,0.662-3.236,0.012c-0.291-0.178-0.484-0.163-0.773,0.009
		c-1.935,1.151-4.335,0.007-4.678-2.214c-0.026-0.168-0.061-0.336-0.092-0.512c-0.797,0.279-0.824,0.314-0.806,1.044
		c0.076,3.03,3.315,4.866,5.97,3.366c0.326-0.182,0.549-0.217,0.873,0.02c0.975,0.715,2.006,0.707,3.021-0.012
		c0.281-0.199,0.48-0.238,0.762-0.012C19.51,15.404,19.799,15.514,20.125,15.689z"/>
	<path fill-rule="evenodd" clip-rule="evenodd" d="M20.658,5.476c-0.23,0.317-0.338,0.617-0.539,0.71
		c-0.398,0.182-0.855,0.357-1.273,0.328c-0.334-0.022-0.73-0.286-0.947-0.563c-0.271-0.351-0.172-0.804,0.141-1.14
		c0.305-0.326,0.68-0.457,1.127-0.29c0.248,0.093,0.535,0.119,0.75,0.259C20.176,4.949,20.377,5.206,20.658,5.476z M18.693,6.108
		c0.48-0.125,0.855-0.21,1.221-0.328c0.066-0.021,0.141-0.186,0.125-0.267c-0.021-0.106-0.109-0.242-0.203-0.282
		c-0.287-0.123-0.586-0.251-0.891-0.29C18.762,4.917,18.48,5,18.383,5.135c-0.113,0.156-0.145,0.448-0.078,0.634
		C18.363,5.934,18.604,6.036,18.693,6.108z"/>
	<path fill-rule="evenodd" clip-rule="evenodd" d="M15.238,11.191c0.01,0.534-0.449,1.013-0.988,1.028
		c-0.541,0.016-1.018-0.433-1.035-0.974c-0.016-0.553,0.418-0.996,0.982-1.003C14.771,10.234,15.225,10.648,15.238,11.191z
		 M14.85,11.34c0-0.082,0-0.164,0-0.246c-0.209-0.143-0.438-0.418-0.625-0.393c-0.203,0.027-0.475,0.311-0.523,0.525
		c-0.07,0.313,0.188,0.579,0.518,0.525C14.445,11.714,14.641,11.484,14.85,11.34z"/>
	<path fill-rule="evenodd" clip-rule="evenodd" d="M14.377,7.636c0.473-0.012,0.852,0.337,0.859,0.79
		c0.008,0.449-0.369,0.827-0.828,0.832c-0.469,0.004-0.824-0.354-0.82-0.828C13.59,7.977,13.918,7.647,14.377,7.636z M14.938,8.415
		c-0.268-0.158-0.418-0.315-0.561-0.309c-0.113,0.005-0.322,0.233-0.303,0.322c0.031,0.146,0.203,0.352,0.334,0.365
		C14.533,8.806,14.682,8.609,14.938,8.415z"/>
	<path fill-rule="evenodd" clip-rule="evenodd" fill="#FFFFFF" d="M7.806,20.883c-2.839-0.902-5.685-4.023-6.039-8.128
		c-0.355-4.117,1.909-8.018,5.64-9.833c3.287-1.599,7.449-1.028,9.582,0.74c-0.244-0.045-0.496-0.068-0.734-0.142
		c-0.496-0.151-0.939-0.09-1.299,0.292c-0.322,0.344-0.289,0.739-0.146,1.166c0.248,0.746-0.225,1.297-1.008,1.207
		c-1.355-0.153-1.967,0.693-1.486,1.994c0.109,0.295,0.08,0.67,0.02,0.99c-0.073,0.391-0.336,0.56-0.783,0.566
		c-2.51,0.041-4.799,1.666-5.7,4.001c-0.906,2.348-0.328,5.018,1.468,6.754C7.468,20.637,7.643,20.754,7.806,20.883z"/>
	<path fill-rule="evenodd" clip-rule="evenodd" fill="#FFFFFF" d="M8.007,11.784c0.062,0.373,0.096,0.696,0.171,1.011
		c0.679,2.838,3.839,4.324,6.458,3.027c0.291-0.145,0.494-0.162,0.783,0.016c0.951,0.588,1.961,0.629,2.945,0.109
		c0.396-0.209,0.672-0.154,1.078-0.016c0.656,0.223,0.791,0.605,0.734,1.217c-0.049,0.514-0.01,1.037-0.01,1.68
		c-0.43-0.426-0.713-0.289-1.055-0.027c-0.914,0.697-2.096,0.68-3.023-0.041c-0.322-0.25-0.561-0.258-0.92-0.08
		c-3.741,1.857-7.949-0.703-8.086-4.883C7.056,12.964,7.171,12.257,8.007,11.784z"/>
	<path fill-rule="evenodd" clip-rule="evenodd" fill="#FFFFFF" d="M6.498,13.871c0.083,1.658,0.638,2.971,1.666,4.061
		c1.753,1.859,4.369,2.414,6.79,1.443c0.43-0.172,0.754-0.209,1.189,0.055c1.014,0.611,2.07,0.547,3.098-0.041
		c0.539-0.309,0.91-0.107,0.924,0.506c0.01,0.506,0.027,1.016-0.018,1.52c-0.014,0.139-0.24,0.369-0.371,0.369
		c-2.824,0.01-5.658,0.121-8.474-0.051C7.498,21.502,4.995,17.418,6.498,13.871z"/>
	<path fill-rule="evenodd" clip-rule="evenodd" fill="#FFFFFF" d="M20.125,15.689c-0.326-0.176-0.615-0.285-0.844-0.467
		c-0.281-0.227-0.48-0.188-0.762,0.012c-1.016,0.719-2.047,0.727-3.021,0.012c-0.324-0.236-0.547-0.201-0.873-0.02
		c-2.655,1.5-5.895-0.336-5.97-3.366c-0.018-0.729,0.008-0.765,0.806-1.044c0.032,0.176,0.066,0.344,0.092,0.512
		c0.343,2.221,2.743,3.365,4.678,2.214c0.289-0.172,0.482-0.187,0.773-0.009c1.07,0.65,2.17,0.637,3.236-0.012
		c0.279-0.169,0.479-0.188,0.721,0.016c0.082,0.068,0.186,0.112,0.285,0.156c0.291,0.133,0.787,0.205,0.84,0.398
		C20.209,14.559,20.125,15.08,20.125,15.689z"/>
	<path fill-rule="evenodd" clip-rule="evenodd" fill="#FFFFFF" d="M18.693,6.108c-0.09-0.072-0.33-0.174-0.389-0.339
		c-0.066-0.186-0.035-0.478,0.078-0.634C18.48,5,18.762,4.917,18.945,4.941c0.305,0.039,0.604,0.167,0.891,0.29
		c0.094,0.04,0.182,0.176,0.203,0.282c0.016,0.081-0.059,0.245-0.125,0.267C19.549,5.898,19.174,5.983,18.693,6.108z"/>
	<path fill-rule="evenodd" clip-rule="evenodd" fill="#FFFFFF" d="M14.85,11.34c-0.209,0.145-0.404,0.374-0.631,0.412
		c-0.33,0.054-0.588-0.213-0.518-0.525c0.049-0.215,0.32-0.498,0.523-0.525c0.188-0.025,0.416,0.25,0.625,0.393
		C14.85,11.176,14.85,11.258,14.85,11.34z"/>
	<path fill-rule="evenodd" clip-rule="evenodd" fill="#FFFFFF" d="M14.938,8.415c-0.256,0.194-0.404,0.392-0.529,0.379
		c-0.131-0.014-0.303-0.219-0.334-0.365c-0.02-0.089,0.189-0.317,0.303-0.322C14.52,8.099,14.67,8.256,14.938,8.415z"/>
</g>
</svg>
