<?xml version="1.0" encoding="utf-8"?>
<!-- Generator: Adobe Illustrator 16.0.2, SVG Export Plug-In . SVG Version: 6.00 Build 0)  -->
<!DOCTYPE svg PUBLIC "-//W3C//DTD SVG 1.1//EN" "http://www.w3.org/Graphics/SVG/1.1/DTD/svg11.dtd">
<svg version="1.1" id="Слой_1" focusable="false"
	 xmlns="http://www.w3.org/2000/svg" xmlns:xlink="http://www.w3.org/1999/xlink" x="0px" y="0px" width="50px" height="50px"
	 viewBox="0 0 50 50" enable-background="new 0 0 50 50" xml:space="preserve">
<g>
	<path fill="#282828" d="M10.417,8.333h4.167c1.15,0,2.083,0.933,2.083,2.083v4.167c0,1.15-0.933,2.083-2.083,2.083h-4.167
		c-1.15,0-2.083-0.933-2.083-2.083v-4.167C8.333,9.266,9.266,8.333,10.417,8.333z"/>
	<path fill="#282828" d="M22.917,8.333h4.167c1.15,0,2.082,0.933,2.082,2.083v4.167c0,1.15-0.932,2.083-2.082,2.083h-4.167
		c-1.15,0-2.083-0.933-2.083-2.083v-4.167C20.833,9.266,21.766,8.333,22.917,8.333z"/>
	<path fill="#282828" d="M35.416,8.333h4.168c1.15,0,2.082,0.933,2.082,2.083v4.167c0,1.15-0.932,2.083-2.082,2.083h-4.168
		c-1.15,0-2.082-0.933-2.082-2.083v-4.167C33.334,9.266,34.266,8.333,35.416,8.333z"/>
	<path fill="#282828" d="M35.416,20.833h4.168c1.15,0,2.082,0.933,2.082,2.083v4.167c0,1.15-0.932,2.082-2.082,2.082h-4.168
		c-1.15,0-2.082-0.932-2.082-2.082v-4.167C33.334,21.766,34.266,20.833,35.416,20.833z"/>
	<path fill="#282828" d="M22.917,20.833h4.167c1.15,0,2.082,0.933,2.082,2.083v4.167c0,1.15-0.932,2.082-2.082,2.082h-4.167
		c-1.15,0-2.083-0.932-2.083-2.082v-4.167C20.833,21.766,21.766,20.833,22.917,20.833z"/>
	<path fill="#282828" d="M10.417,20.833h4.167c1.15,0,2.083,0.933,2.083,2.083v4.167c0,1.15-0.933,2.082-2.083,2.082h-4.167
		c-1.15,0-2.083-0.932-2.083-2.082v-4.167C8.333,21.766,9.266,20.833,10.417,20.833z"/>
	<path fill="#282828" d="M10.417,33.334h4.167c1.15,0,2.083,0.932,2.083,2.082v4.168c0,1.15-0.933,2.082-2.083,2.082h-4.167
		c-1.15,0-2.083-0.932-2.083-2.082v-4.168C8.333,34.266,9.266,33.334,10.417,33.334z"/>
	<path fill="#282828" d="M22.917,33.334h4.167c1.15,0,2.082,0.932,2.082,2.082v4.168c0,1.15-0.932,2.082-2.082,2.082h-4.167
		c-1.15,0-2.083-0.932-2.083-2.082v-4.168C20.833,34.266,21.766,33.334,22.917,33.334z"/>
	<path fill="#282828" d="M35.416,33.334h4.168c1.15,0,2.082,0.932,2.082,2.082v4.168c0,1.15-0.932,2.082-2.082,2.082h-4.168
		c-1.15,0-2.082-0.932-2.082-2.082v-4.168C33.334,34.266,34.266,33.334,35.416,33.334z"/>
</g>
</svg>
