<?xml version="1.0" encoding="utf-8"?>
<!-- Generator: Adobe Illustrator 16.0.2, SVG Export Plug-In . SVG Version: 6.00 Build 0)  -->
<!DOCTYPE svg PUBLIC "-//W3C//DTD SVG 1.1//EN" "http://www.w3.org/Graphics/SVG/1.1/DTD/svg11.dtd">
<svg version="1.1" id="Слой_1" xmlns="http://www.w3.org/2000/svg" xmlns:xlink="http://www.w3.org/1999/xlink" x="0px" y="0px"
	 width="24px" height="24px" viewBox="0 0 24 24" enable-background="new 0 0 24 24" xml:space="preserve">
<path fill="none" d="M0,0h24v24H0V0z"/>
<g>
	<path fill-rule="evenodd" clip-rule="evenodd" fill="#FFFFFF" d="M7.818,17.031c0.551-1.366,0.945-1.646,2.182-1.646
		c2.8-0.001,5.6-0.011,8.399,0.006c0.672,0.004,1.018-0.217,1.146-0.929c0.37-2.036,0.813-4.059,1.224-6.087
		c0.265-1.306,0.063-1.542-1.315-1.542C15.281,6.832,11.108,6.828,6.936,6.84C6.469,6.841,6.124,6.805,5.952,6.263
		c-0.218-0.69-0.501-1.367-0.831-2.01c-0.14-0.271-0.439-0.552-0.725-0.636c-0.744-0.22-1.516-0.374-2.287-0.466
		C1.863,3.122,1.584,3.369,1.32,3.489C1.516,3.723,1.666,4.07,1.914,4.164C2.41,4.352,2.985,4.335,3.477,4.529
		c0.351,0.139,0.762,0.424,0.9,0.748c1.098,2.57,2.089,5.187,3.219,7.742c0.469,1.063,0.643,1.936-0.371,2.734
		c-0.119,0.095-0.229,0.254-0.262,0.401c-0.104,0.476-0.375,1.074-0.19,1.407c0.179,0.321,0.843,0.512,1.297,0.517
		c3.634,0.04,7.269,0.023,10.903,0.021c0.215,0,0.46,0.038,0.635-0.052c0.16-0.081,0.313-0.303,0.337-0.48
		c0.019-0.132-0.146-0.37-0.282-0.423c-0.239-0.094-0.521-0.109-0.784-0.11c-2.827-0.006-5.653-0.004-8.48-0.004
		C9.567,17.031,8.738,17.031,7.818,17.031z M11.906,19.745c0.021-0.646-0.49-1.179-1.139-1.189
		c-0.654-0.011-1.181,0.501-1.183,1.149c-0.002,0.617,0.48,1.117,1.103,1.145C11.35,20.878,11.887,20.392,11.906,19.745z
		 M18.215,19.75c0.023-0.656-0.491-1.191-1.151-1.194c-0.642-0.003-1.122,0.46-1.142,1.103c-0.021,0.653,0.42,1.15,1.052,1.189
		C17.641,20.889,18.191,20.4,18.215,19.75z"/>
	<path fill-rule="evenodd" clip-rule="evenodd" fill="#141414" d="M7.818,17.031c0.92,0,1.749,0,2.579,0
		c2.827,0,5.653-0.002,8.48,0.004c0.264,0.001,0.545,0.017,0.784,0.11c0.137,0.053,0.301,0.291,0.282,0.423
		c-0.024,0.178-0.177,0.399-0.337,0.48c-0.175,0.09-0.42,0.052-0.635,0.052c-3.635,0.002-7.27,0.019-10.903-0.021
		c-0.454-0.005-1.118-0.195-1.297-0.517c-0.185-0.333,0.087-0.932,0.19-1.407c0.033-0.147,0.143-0.307,0.262-0.401
		c1.014-0.799,0.84-1.672,0.371-2.734c-1.13-2.556-2.121-5.172-3.219-7.742c-0.139-0.324-0.55-0.609-0.9-0.748
		C2.985,4.335,2.41,4.352,1.914,4.164C1.666,4.07,1.516,3.723,1.32,3.489c0.264-0.12,0.543-0.367,0.789-0.338
		c0.771,0.092,1.543,0.246,2.287,0.466c0.285,0.084,0.585,0.364,0.725,0.636c0.33,0.643,0.613,1.319,0.831,2.01
		C6.124,6.805,6.469,6.841,6.936,6.84c4.173-0.012,8.346-0.008,12.519-0.007c1.378,0,1.58,0.236,1.315,1.542
		c-0.41,2.028-0.854,4.051-1.224,6.087c-0.129,0.712-0.475,0.933-1.146,0.929c-2.8-0.017-5.6-0.007-8.399-0.006
		C8.764,15.385,8.369,15.665,7.818,17.031z M6.652,7.954c0.861,2.103,1.65,4.068,2.488,6.013c0.08,0.188,0.459,0.347,0.701,0.349
		c2.666,0.024,5.332,0.007,7.998,0.023c0.498,0.003,0.709-0.153,0.771-0.674c0.087-0.718,0.292-1.421,0.435-2.133
		c0.233-1.173,0.458-2.349,0.696-3.578C15.353,7.954,11.082,7.954,6.652,7.954z"/>
	<path fill-rule="evenodd" clip-rule="evenodd" fill="#141414" d="M11.906,19.745c-0.02,0.646-0.557,1.133-1.219,1.104
		c-0.622-0.027-1.104-0.527-1.103-1.145c0.002-0.648,0.528-1.16,1.183-1.149C11.416,18.566,11.928,19.1,11.906,19.745z"/>
	<path fill-rule="evenodd" clip-rule="evenodd" fill="#141414" d="M18.215,19.75c-0.023,0.65-0.574,1.139-1.241,1.098
		c-0.632-0.039-1.072-0.536-1.052-1.189c0.02-0.643,0.5-1.105,1.142-1.103C17.724,18.559,18.238,19.094,18.215,19.75z M17.639,19.67
		c-0.263-0.186-0.453-0.412-0.564-0.379c-0.181,0.057-0.308,0.282-0.458,0.438c0.166,0.133,0.319,0.341,0.502,0.372
		C17.236,20.121,17.397,19.88,17.639,19.67z"/>
	<path fill-rule="evenodd" clip-rule="evenodd" fill="#FFFFFF" d="M6.652,7.954c4.43,0,8.7,0,13.09,0
		c-0.238,1.229-0.463,2.405-0.696,3.578c-0.143,0.712-0.348,1.415-0.435,2.133c-0.063,0.521-0.273,0.677-0.771,0.674
		c-2.666-0.017-5.332,0.001-7.998-0.023c-0.242-0.002-0.621-0.161-0.701-0.349C8.303,12.022,7.514,10.057,6.652,7.954z"/>
	<path fill-rule="evenodd" clip-rule="evenodd" fill="#FFFFFF" d="M17.639,19.67c-0.241,0.21-0.402,0.451-0.521,0.431
		c-0.183-0.031-0.336-0.239-0.502-0.372c0.15-0.155,0.277-0.381,0.458-0.438C17.186,19.258,17.376,19.484,17.639,19.67z"/>
</g>
</svg>
