<?xml version="1.0" encoding="utf-8"?>
<!-- Generator: Adobe Illustrator 16.0.2, SVG Export Plug-In . SVG Version: 6.00 Build 0)  -->
<!DOCTYPE svg PUBLIC "-//W3C//DTD SVG 1.1//EN" "http://www.w3.org/Graphics/SVG/1.1/DTD/svg11.dtd">
<svg version="1.1" id="Layer_1" xmlns="http://www.w3.org/2000/svg" xmlns:xlink="http://www.w3.org/1999/xlink" x="0px" y="0px"
	 width="4081.89px" height="2902.68px" viewBox="0 0 4081.89 2902.68" enable-background="new 0 0 4081.89 2902.68"
	 xml:space="preserve">
<g>
	<path fill-rule="evenodd" clip-rule="evenodd" fill="#FFFFFF" d="M1528.49,2058.99c66.598-165.045,114.297-198.84,263.523-198.878
		c338.134-0.076,676.27-1.277,1014.386,0.743c81.12,0.477,122.816-26.266,138.417-112.191
		c44.648-245.861,98.171-490.123,147.806-735.109c31.945-157.669,7.558-186.107-158.832-186.146
		c-503.943-0.095-1007.887-0.629-1511.82,0.763c-56.467,0.172-98.037-4.136-118.757-69.686
		c-26.322-83.295-60.431-165.007-100.363-242.68c-16.802-32.688-53.131-66.693-87.45-76.814
		c-89.966-26.513-183.125-45.078-276.273-56.19c-29.706-3.545-63.396,26.285-95.265,40.848
		c23.54,28.113,41.829,70.085,71.734,81.426c59.898,22.702,129.297,20.68,188.71,44.183c42.276,16.734,91.929,51.139,108.664,90.309
		c132.623,310.325,252.267,626.292,388.655,934.884c56.687,128.277,77.653,233.759-44.697,330.281
		c-14.524,11.456-27.723,30.63-31.602,48.413c-12.542,57.45-45.354,129.746-22.996,170.003
		c21.5,38.73,101.773,61.775,156.544,62.385c438.87,4.842,877.807,2.783,1316.724,2.535c25.914,0,55.525,4.593,76.644-6.195
		c19.279-9.872,37.798-36.597,40.713-58.058c2.154-15.916-17.572-44.66-34.022-51.064c-28.991-11.282-62.909-13.188-94.778-13.265
		c-341.385-0.821-682.76-0.496-1024.145-0.496C1739.833,2058.99,1639.661,2058.99,1528.49,2058.99z M2022.321,2386.718
		c2.479-77.938-59.191-142.326-137.627-143.659c-78.958-1.336-142.516,60.478-142.772,138.854
		c-0.248,74.451,58.03,134.893,133.205,138.113C1954.98,2523.458,2019.834,2464.733,2022.321,2386.718z M2784.125,2387.27
		c2.813-79.311-59.373-143.793-139.074-144.231c-77.453-0.4-135.443,55.619-137.893,133.214
		c-2.498,78.815,50.7,138.935,127.066,143.583C2714.745,2524.754,2781.333,2465.858,2784.125,2387.27z"/>
	<path fill-rule="evenodd" clip-rule="evenodd" fill="#141414" d="M1528.49,2058.99c111.171,0,211.344,0,311.518,0
		c341.385,0,682.76-0.325,1024.145,0.496c31.869,0.076,65.787,1.982,94.778,13.265c16.45,6.404,36.177,35.148,34.022,51.064
		c-2.915,21.461-21.434,48.186-40.713,58.058c-21.118,10.788-50.729,6.195-76.644,6.195
		c-438.917,0.248-877.854,2.307-1316.724-2.535c-54.771-0.609-135.044-23.654-156.544-62.385
		c-22.358-40.257,10.454-112.553,22.996-170.003c3.879-17.783,17.078-36.957,31.602-48.413
		c122.35-96.522,101.384-202.004,44.697-330.281c-136.388-308.592-256.032-624.559-388.655-934.884
		c-16.735-39.17-66.388-73.574-108.664-90.309c-59.413-23.503-128.812-21.481-188.71-44.183
		c-29.906-11.341-48.194-53.313-71.734-81.426c31.869-14.563,65.559-44.393,95.265-40.848
		c93.148,11.112,186.308,29.678,276.273,56.19c34.319,10.121,70.648,44.126,87.45,76.814
		c39.932,77.672,74.041,159.385,100.363,242.68c20.72,65.549,62.29,69.857,118.757,69.686
		c503.934-1.392,1007.877-0.857,1511.82-0.763c166.39,0.039,190.777,28.477,158.832,186.146
		c-49.635,244.986-103.157,489.248-147.806,735.109c-15.601,85.926-57.297,112.668-138.417,112.191
		c-338.116-2.021-676.252-0.819-1014.386-0.743C1642.787,1860.15,1595.088,1893.945,1528.49,2058.99z M1387.766,962.815
		c103.994,253.887,199.297,491.25,300.423,726.075c9.75,22.624,55.533,41.838,84.772,42.104
		c321.944,2.993,643.923,0.857,965.886,2.821c60.193,0.362,85.582-18.546,93.131-81.332
		c10.424-86.706,35.271-171.622,52.416-257.604c28.248-141.696,55.285-283.621,84.114-432.065
		C2438.453,962.815,1922.672,962.815,1387.766,962.815z"/>
	<path fill-rule="evenodd" clip-rule="evenodd" fill="#141414" d="M2022.321,2386.718c-2.486,78.015-67.341,136.74-147.194,133.309
		c-75.175-3.221-133.453-63.662-133.205-138.113c0.257-78.377,63.814-140.19,142.772-138.854
		C1963.13,2244.392,2024.799,2308.78,2022.321,2386.718z"/>
	<path fill-rule="evenodd" clip-rule="evenodd" fill="#141414" d="M2784.125,2387.27c-2.791,78.588-69.38,137.484-149.9,132.565
		c-76.366-4.648-129.564-64.768-127.066-143.583c2.449-77.595,60.439-133.614,137.893-133.214
		C2724.751,2243.477,2786.937,2307.959,2784.125,2387.27z M2714.431,2377.607c-31.613-22.396-54.715-49.805-68.047-45.688
		c-21.797,6.766-37.226,34.061-55.344,52.682c20.033,16.089,38.504,41.228,60.643,45.042
		C2665.835,2432.063,2685.401,2402.957,2714.431,2377.607z"/>
	<path fill-rule="evenodd" clip-rule="evenodd" fill="#FFFFFF" d="M1387.766,962.815c534.906,0,1050.687,0,1580.742,0
		c-28.829,148.444-55.866,290.369-84.114,432.065c-17.145,85.981-41.992,170.897-52.416,257.604
		c-7.549,62.786-32.938,81.694-93.131,81.332c-321.963-1.964-643.942,0.172-965.886-2.821c-29.239-0.267-75.022-19.48-84.772-42.104
		C1587.063,1454.065,1491.76,1216.701,1387.766,962.815z"/>
	<path fill-rule="evenodd" clip-rule="evenodd" fill="#FFFFFF" d="M2714.431,2377.607c-29.03,25.351-48.596,54.456-62.748,52.036
		c-22.139-3.814-40.609-28.953-60.643-45.042c18.118-18.621,33.547-45.916,55.344-52.682
		C2659.716,2327.802,2682.818,2355.21,2714.431,2377.607z"/>
</g>
</svg>
